<?xml version="1.0" encoding="UTF-8"?>
<svg xmlns="http://www.w3.org/2000/svg" xmlns:se="https://standardebooks.org/vocab/1.0" version="1.1" viewBox="0 0 1400 440" se:generated-from="a55e6a473913846ba8c4c6509e69c4baee54179c">
	<path d="M 360.40856,66.843806 378.74828,66.843806 378.74828,128.60001 396.33944,128.60001 396.33944,66.843806 414.67916,66.843806 414.67916,51.404756 360.40856,51.404756 360.40856,66.843806 Z"/>
	<path d="M 443.6053,97.628336 468.49492,97.628336 468.49492,128.60001 486.08608,128.60001 486.08608,51.404756 468.49492,51.404756 468.49492,82.189286 443.6053,82.189286 443.6053,51.404756 426.01414,51.404756 426.01414,128.60001 443.6053,128.60001 443.6053,97.628336 Z"/>
	<path d="M 546.45321,51.404756 502.28817,51.404756 502.28817,128.60001 546.45321,128.60001 546.45321,113.16096 519.87933,113.16096 519.87933,97.628336 545.33037,97.628336 545.33037,82.189286 519.87933,82.189286 519.87933,66.843806 546.45321,66.843806 546.45321,51.404756 Z"/>
	<path d="M 582.71714,66.843806 601.05686,66.843806 601.05686,128.60001 618.64802,128.60001 618.64802,66.843806 636.98774,66.843806 636.98774,51.404756 582.71714,51.404756 582.71714,66.843806 Z"/>
	<path d="M 707.64611,51.404756 690.05495,51.404756 690.05495,96.037646 C 690.05495,108.95031 686.12501,112.69311 677.51657,112.69311 668.90813,112.69311 664.97819,108.95031 664.97819,96.037646 L 664.97819,51.404756 647.38703,51.404756 647.38703,101.184 C 647.38703,120.27228 657.86687,130.00356 677.51657,130.00356 697.16627,130.00356 707.64611,120.27228 707.64611,101.184 L 707.64611,51.404756 Z"/>
	<path d="M 722.95194,51.404756 722.95194,128.60001 740.5431,128.60001 740.5431,98.096186 764.12274,128.60001 786.48597,128.60001 759.91209,96.692636 C 769.36266,93.698396 775.72542,85.932086 775.72542,74.329406 775.72542,59.171066 764.8713,51.404756 750.55509,51.404756 L 722.95194,51.404756 Z M 740.5431,85.651376 740.5431,65.440256 742.60164,65.440256 C 749.24511,65.440256 757.19856,65.908106 757.19856,75.545816 757.19856,85.183526 749.24511,85.651376 742.60164,85.651376 L 740.5431,85.651376 Z"/>
	<path d="M 812.61381,80.692166 812.80095,80.692166 843.49191,128.60001 861.08307,128.60001 861.08307,51.404756 843.49191,51.404756 843.49191,99.312596 843.30477,99.312596 812.61381,51.404756 795.02265,51.404756 795.02265,128.60001 812.61381,128.60001 812.61381,80.692166 Z"/>
	<path d="M 904.45097,89.955596 C 904.45097,112.50597 920.54501,130.00356 943.37609,130.00356 965.55218,130.00356 982.20764,112.50597 982.20764,89.955596 982.20764,67.405226 964.80362,50.001206 943.37609,50.001206 922.1357,50.001206 904.45097,67.405226 904.45097,89.955596 Z M 923.44568,89.955596 C 923.44568,78.446486 929.80844,66.937376 943.37609,66.937376 957.03731,66.937376 963.21293,78.446486 963.21293,89.955596 963.21293,101.46471 957.41159,112.97382 943.37609,112.97382 928.96631,112.97382 923.44568,101.46471 923.44568,89.955596 Z"/>
	<path d="M 1039.6025,51.404756 994.96958,51.404756 994.96958,128.60001 1012.5607,128.60001 1012.5607,97.628336 1037.5439,97.628336 1037.5439,82.189286 1012.5607,82.189286 1012.5607,66.843806 1039.6025,66.843806 1039.6025,51.404756 Z"/>
	<path d="M 398.78857,166.84381 417.12829,166.84381 417.12829,228.60001 434.71945,228.60001 434.71945,166.84381 453.05917,166.84381 453.05917,151.40476 398.78857,151.40476 398.78857,166.84381 Z"/>
	<path d="M 481.98531,197.62834 506.87493,197.62834 506.87493,228.60001 524.46609,228.60001 524.46609,151.40476 506.87493,151.40476 506.87493,182.18929 481.98531,182.18929 481.98531,151.40476 464.39415,151.40476 464.39415,228.60001 481.98531,228.60001 481.98531,197.62834 Z"/>
	<path d="M 584.83321,151.40476 540.66817,151.40476 540.66817,228.60001 584.83321,228.60001 584.83321,213.16096 558.25933,213.16096 558.25933,197.62834 583.71037,197.62834 583.71037,182.18929 558.25933,182.18929 558.25933,166.84381 584.83321,166.84381 584.83321,151.40476 Z"/>
	<path d="M 657.14937,150.00121 C 644.70456,150.00121 631.97904,159.17107 631.97904,173.58085 631.97904,181.62787 637.4061,188.83276 646.66953,193.41769 655.83939,198.00262 664.07355,200.52901 664.07355,206.14321 664.07355,213.3481 656.77509,213.72238 652.93872,213.72238 644.33028,213.72238 634.03758,205.02037 634.03758,205.02037 L 625.242,219.80443 C 625.242,219.80443 636.18969,230.00356 654.2487,230.00356 669.31347,230.00356 683.34897,223.54723 683.34897,205.11394 683.34897,195.00838 673.8984,187.70992 665.28996,184.06069 656.49438,180.31789 649.19592,177.23008 649.19592,172.92586 649.19592,168.71521 652.3773,166.00168 658.36578,166.00168 666.31923,166.00168 673.99197,171.33517 673.99197,171.33517 L 681.10329,157.29967 C 681.10329,157.29967 671.18487,150.00121 657.14937,150.00121 Z"/>
	<path d="M 734.7246,212.69311 C 717.03987,212.69311 709.27356,200.34187 709.27356,189.9556 709.27356,179.6629 717.03987,167.31166 734.7246,167.31166 743.70732,167.31166 749.88294,172.08373 749.88294,172.08373 L 757.36854,157.11253 C 757.36854,157.11253 748.7601,150.00121 732.01107,150.00121 710.11569,150.00121 690.18528,167.96665 690.18528,190.14274 690.18528,212.22526 710.20926,230.00356 732.01107,230.00356 748.7601,230.00356 757.36854,222.89224 757.36854,222.89224 L 749.88294,207.92104 C 749.88294,207.92104 743.70732,212.69311 734.7246,212.69311 Z"/>
	<path d="M 769.19037,151.40476 769.19037,228.60001 786.78153,228.60001 786.78153,198.09619 810.36117,228.60001 832.7244,228.60001 806.15052,196.69264 C 815.60109,193.6984 821.96385,185.93209 821.96385,174.32941 821.96385,159.17107 811.10973,151.40476 796.79352,151.40476 L 769.19037,151.40476 Z M 786.78153,185.65138 786.78153,165.44026 788.84007,165.44026 C 795.48354,165.44026 803.43699,165.90811 803.43699,175.54582 803.43699,185.18353 795.48354,185.65138 788.84007,185.65138 L 786.78153,185.65138 Z"/>
	<path d="M 885.42609,151.40476 841.26105,151.40476 841.26105,228.60001 885.42609,228.60001 885.42609,213.16096 858.85221,213.16096 858.85221,197.62834 884.30325,197.62834 884.30325,182.18929 858.85221,182.18929 858.85221,166.84381 885.42609,166.84381 885.42609,151.40476 Z"/>
	<path d="M 959.76878,228.60001 979.23134,228.60001 1001.2203,151.40476 981.75773,151.40476 968.56436,204.36538 968.09651,204.36538 954.06101,151.40476 940.77407,151.40476 926.73857,204.36538 926.27072,204.36538 913.07735,151.40476 893.52122,151.40476 915.51017,228.60001 935.0663,228.60001 947.41754,185.2771 959.76878,228.60001 Z"/>
	<path d="M 436.75465,365.72043 455.42253,365.72043 455.42253,388.95001 468.61637,388.95001 468.61637,331.05151 455.42253,331.05151 455.42253,354.14073 436.75465,354.14073 436.75465,331.05151 423.56081,331.05151 423.56081,388.95001 436.75465,388.95001 436.75465,365.72043 Z"/>
	<path d="M 515.14319,331.05151 482.01823,331.05151 482.01823,388.95001 515.14319,388.95001 515.14319,377.37031 495.21207,377.37031 495.21207,365.72043 514.30103,365.72043 514.30103,354.14073 495.21207,354.14073 495.21207,342.63121 515.14319,342.63121 515.14319,331.05151 Z"/>
	<path d="M 540.92195,353.01785 541.06231,353.01785 564.08135,388.95001 577.27519,388.95001 577.27519,331.05151 564.08135,331.05151 564.08135,366.98367 563.94099,366.98367 540.92195,331.05151 527.72811,331.05151 527.72811,388.95001 540.92195,388.95001 540.92195,353.01785 Z"/>
	<path d="M 590.70885,331.05151 590.70885,388.95001 603.90269,388.95001 603.90269,366.07133 621.58805,388.95001 638.36107,388.95001 618.42995,365.01863 C 625.51813,362.77287 630.29037,356.94793 630.29037,348.24561 630.29037,336.87645 622.14949,331.05151 611.41195,331.05151 L 590.70885,331.05151 Z M 603.90269,356.73739 603.90269,341.57851 605.44665,341.57851 C 610.42943,341.57851 616.39473,341.92941 616.39473,349.15795 616.39473,356.38649 610.42943,356.73739 605.44665,356.73739 L 603.90269,356.73739 Z"/>
	<path d="M 633.39222,331.05151 654.72694,362.98341 654.72694,388.95001 667.92078,388.95001 667.92078,362.98341 689.2555,331.05151 673.39482,331.05151 661.32386,349.57903 649.2529,331.05151 633.39222,331.05151 Z"/>
	<path d="M 745.7684,331.05151 732.57456,331.05151 732.57456,369.22943 C 732.57456,375.05437 729.69718,377.37031 725.90746,377.37031 722.53882,377.37031 718.3982,373.44023 718.3982,373.44023 L 714.1874,384.45849 C 714.1874,384.45849 719.4509,390.00271 727.73214,390.00271 739.31184,390.00271 745.7684,383.96723 745.7684,372.59807 L 745.7684,331.05151 Z"/>
	<path d="M 787.87608,331.05151 775.66476,331.05151 752.29482,388.95001 766.47118,388.95001 770.75216,377.37031 792.78868,377.37031 797.06966,388.95001 811.24602,388.95001 787.87608,331.05151 Z M 788.29716,365.79061 775.24368,365.79061 781.70024,348.94741 781.8406,348.94741 788.29716,365.79061 Z"/>
	<path d="M 866.2986,388.95001 879.49244,388.95001 874.29912,331.05151 860.26312,331.05151 847.42018,364.45719 834.57724,331.05151 820.54124,331.05151 815.34792,388.95001 828.54176,388.95001 831.27878,354.63199 831.62968,354.63199 843.4901,388.59911 851.35026,388.59911 863.21068,354.63199 863.56158,354.63199 866.2986,388.95001 Z"/>
	<path d="M 922.90284,331.05151 889.77788,331.05151 889.77788,388.95001 922.90284,388.95001 922.90284,377.37031 902.97172,377.37031 902.97172,365.72043 922.06068,365.72043 922.06068,354.14073 902.97172,354.14073 902.97172,342.63121 922.90284,342.63121 922.90284,331.05151 Z"/>
	<path d="M 956.82247,329.99881 C 947.48853,329.99881 937.94405,336.87645 937.94405,347.68417 937.94405,353.71965 942.01449,359.12351 948.96231,362.56233 955.83995,366.00115 962.01579,367.89601 962.01579,372.10681 962.01579,377.51067 956.54175,377.79139 953.66437,377.79139 947.20781,377.79139 939.48801,371.26465 939.48801,371.26465 L 932.89109,382.35309 C 932.89109,382.35309 941.10215,390.00271 954.64689,390.00271 965.94587,390.00271 976.47287,385.16029 976.47287,371.33483 976.47287,363.75539 969.38469,358.28135 962.92813,355.54433 956.33121,352.73713 950.85717,350.42119 950.85717,347.19291 950.85717,344.03481 953.24329,341.99959 957.73481,341.99959 963.70011,341.99959 969.45487,345.99985 969.45487,345.99985 L 974.78855,335.47285 C 974.78855,335.47285 967.34947,329.99881 956.82247,329.99881 Z"/>
</svg>
